<svg width="111" height="51" viewBox="0 0 111 51" fill="none" xmlns="http://www.w3.org/2000/svg">
<path d="M29.9405 21.4523V30.015C29.9405 30.1538 29.8849 30.2869 29.7859 30.385C29.6869 30.4832 29.5527 30.5383 29.4127 30.5383H26.6866C26.5466 30.5382 26.4124 30.4831 26.3134 30.3849C26.2144 30.2868 26.1588 30.1537 26.1587 30.015V16.0874C26.1587 15.9486 26.2143 15.8155 26.3133 15.7174C26.4123 15.6192 26.5466 15.5641 26.6866 15.5641H29.2093C29.3493 15.5641 29.4835 15.6192 29.5825 15.7174C29.6815 15.8155 29.7371 15.9486 29.7371 16.0874V18.0488C29.7371 18.0488 30.6389 15.2509 33.3153 15.2509C33.3153 15.2509 35.9625 14.9337 37.0389 17.8469C37.0389 17.8469 37.9407 15.2509 40.6752 15.2509C40.6752 15.2509 44.7418 15.0112 44.7418 19.1834L44.7728 21.4812V30.0438C44.7728 30.1826 44.7172 30.3157 44.6182 30.4139C44.5192 30.512 44.385 30.5671 44.245 30.5671H41.5186C41.3786 30.5671 41.2444 30.5119 41.1454 30.4138C41.0465 30.3157 40.9908 30.1826 40.9908 30.0438L40.9659 20.7024C41.0434 18.5871 39.3175 18.741 39.3175 18.741C37.1455 18.7796 37.3544 21.4812 37.3544 21.4812V30.0438C37.3544 30.1826 37.2988 30.3157 37.1999 30.4139C37.1009 30.512 36.9666 30.5671 36.8266 30.5671H34.1005C33.9605 30.5671 33.8263 30.5119 33.7273 30.4138C33.6284 30.3157 33.5727 30.1826 33.5727 30.0438V20.9138C33.5727 20.9138 33.7321 18.7216 31.7925 18.7216C31.7928 18.7216 29.8728 18.4717 29.9405 21.4523ZM100.213 21.4267V29.9891C100.213 30.1279 100.157 30.261 100.058 30.3591C99.9595 30.4572 99.8252 30.5124 99.6853 30.5124L96.85 30.5669C96.71 30.5668 96.5758 30.5117 96.4768 30.4136C96.3778 30.3154 96.3222 30.1823 96.3221 30.0436V20.9138C96.3221 20.9138 96.4816 18.7216 94.5423 18.7216C94.5423 18.7216 92.69 18.6312 92.69 22.0682V30.0147C92.6899 30.1535 92.6343 30.2866 92.5353 30.3847C92.4364 30.4828 92.3022 30.538 92.1622 30.5381H89.4358C89.2958 30.538 89.1616 30.4828 89.0627 30.3847C88.9637 30.2866 88.908 30.1535 88.908 30.0147V16.0874C88.908 15.9486 88.9637 15.8156 89.0627 15.7174C89.1616 15.6193 89.2958 15.5641 89.4358 15.5641H91.9585C92.0985 15.5641 92.2328 15.6192 92.3318 15.7174C92.4308 15.8155 92.4864 15.9486 92.4864 16.0874V18.0488C92.4864 18.0488 93.3882 15.2509 96.0645 15.2509C96.0645 15.2509 98.9315 14.8197 99.897 17.7926C99.8973 17.7924 100.213 18.4057 100.213 21.4267ZM80.5292 15.1933C77.043 15.1933 74.2165 18.1065 74.2165 23.0099C74.2165 27.327 76.3983 30.8265 80.5292 30.8265C84.4273 30.8265 86.8419 27.327 86.8419 23.0099C86.8419 18.193 84.0156 15.1933 80.5292 15.1933ZM82.7296 23.1829C82.7296 25.0289 82.4969 26.0096 82.4969 26.0096C82.1657 27.9611 80.737 27.9638 80.5264 27.9534C80.299 27.9624 78.8582 27.9421 78.5601 26.0096C78.5601 26.0096 78.3274 25.0289 78.3274 23.1829V22.8754C78.3274 21.0294 78.5601 20.0487 78.5601 20.0487C78.8582 18.1162 80.2992 18.0958 80.5264 18.1046C80.737 18.0942 82.1657 18.0968 82.4969 20.0487C82.4969 20.0487 82.7296 21.0294 82.7296 22.8754V23.1829ZM72.6342 18.0294V16.0311C72.6342 15.8923 72.5785 15.7592 72.4795 15.6611C72.3806 15.563 72.2464 15.5078 72.1064 15.5078H63.0953C62.9553 15.5078 62.821 15.5629 62.722 15.661C62.623 15.7592 62.5674 15.8923 62.5674 16.0311V18.0139C62.5675 18.1527 62.6231 18.2858 62.7221 18.3839C62.8211 18.4821 62.9553 18.5372 63.0953 18.5373H67.7956L62.2321 26.5396C62.2321 26.5396 62.0129 26.8641 62.0201 27.2224V29.6566C62.0201 29.6566 61.9838 30.4912 62.9384 30.0069C62.9384 30.0069 64.634 28.9911 67.4772 28.9911C67.4772 28.9911 70.2851 28.9565 72.1571 30.0943C72.1571 30.0943 72.9342 30.4446 72.9342 29.6744V27.5556C72.9342 27.5556 73.0047 26.9949 72.263 26.6449C72.263 26.6449 70.1084 25.4717 67.2829 25.6642L72.6342 18.0294ZM24.0547 28.0476L23.2013 26.7595C22.9297 26.2787 22.9492 25.7401 22.9492 25.7401V19.7985C23.0656 14.6644 17.3249 15.1067 17.3249 15.1067C12.2217 15.1067 11.468 19.0445 11.468 19.0445C11.2552 19.8362 11.8738 19.8553 11.8738 19.8553L14.3675 20.1061C14.3675 20.1061 14.7927 20.2026 14.9474 19.7007C14.9474 19.7007 15.2758 17.9828 17.1122 17.9828C19.1104 17.9828 19.0897 19.6832 19.0897 19.6832V21.1067C15.1008 21.2389 13.2523 22.3368 13.2523 22.3368C10.7893 23.7213 10.9443 26.4711 10.9443 26.4711C10.9443 30.9513 15.2497 30.7589 15.2497 30.7589C18.0036 30.7589 19.6327 28.7592 19.6327 28.7592C20.1174 29.6056 21.0097 30.4128 21.0097 30.4128C21.4561 30.8927 21.9213 30.4898 21.9213 30.4898L23.9383 28.7786C24.3842 28.4514 24.0547 28.0476 24.0547 28.0476ZM16.5937 27.9922C15.2984 27.9922 14.8169 26.7159 15.0319 25.4616C15.2472 24.2072 16.3652 23.2215 19.0899 23.2503V24.0129C19.1865 27.3445 17.6719 27.9922 16.5937 27.9922ZM60.2821 28.0476L59.4289 26.7595C59.1573 26.2787 59.1766 25.7401 59.1766 25.7401V19.7985C59.293 14.6644 53.5524 15.1067 53.5524 15.1067C48.4492 15.1067 47.6954 19.0445 47.6954 19.0445C47.4827 19.8362 48.1012 19.8553 48.1012 19.8553L50.5949 20.1061C50.5949 20.1061 51.0201 20.2026 51.1748 19.7007C51.1748 19.7007 51.5032 17.9828 53.3397 17.9828C55.3378 17.9828 55.3171 19.6832 55.3171 19.6832V21.1067C51.3284 21.2389 49.4797 22.3368 49.4797 22.3368C47.0167 23.7213 47.1717 26.4711 47.1717 26.4711C47.1717 30.9513 51.4771 30.7589 51.4771 30.7589C54.231 30.7589 55.8601 28.7592 55.8601 28.7592C56.3451 29.6056 57.2369 30.4128 57.2369 30.4128C57.6832 30.8927 58.1487 30.4898 58.1487 30.4898L60.1655 28.7786C60.6116 28.4514 60.2821 28.0476 60.2821 28.0476ZM52.8211 27.9922C51.5258 27.9922 51.0443 26.7159 51.2593 25.4616C51.4746 24.2072 52.5926 23.2215 55.3171 23.2503V24.0129C55.4139 27.3445 53.8996 27.9922 52.8211 27.9922Z" fill="white"/>
<path d="M67.1465 39.2939C67.1465 39.2939 66.9184 39.6873 67.1986 39.7752C67.1986 39.7752 67.5151 39.8977 67.9098 39.5345C67.9098 39.5345 70.7884 37.0413 70.8578 32.502C70.8578 32.502 70.8789 31.9351 70.6495 31.78C70.6495 31.78 69.7477 30.989 66.5049 31.2297C66.5049 31.2297 63.6782 31.4189 62.135 32.7773C62.135 32.7773 61.9963 32.8975 61.9963 33.0521C61.9963 33.0521 61.963 33.386 62.8113 33.2413C62.8113 33.2413 65.6377 32.8456 67.3199 33.0521C67.3199 33.0521 68.1872 33.1553 68.43 33.4478C68.43 33.4478 68.8289 33.7746 68.6206 34.8575C68.6206 34.8579 68.0481 37.6089 67.1465 39.2939Z" fill="#F3971B"/>
<path d="M66.5761 34.9386C66.5761 34.9386 66.9983 35.4808 66.3171 35.9486C66.3171 35.9486 59.0405 41.7196 46.8224 41.7196C46.8224 41.7196 34.2454 42.3348 23.7437 32.8741C23.7437 32.8741 23.3755 32.5535 23.6041 32.2556C23.6041 32.2556 23.8084 31.9815 24.3374 32.2796C24.3374 32.2796 34.2164 38.3832 47.1908 38.3832C47.1908 38.3832 56.2089 38.7293 65.4597 34.8066C65.4597 34.8066 66.1968 34.4279 66.5761 34.9386Z" fill="#F3971B"/>
</svg>
