<svg width="152" height="51" viewBox="0 0 152 51" fill="none" xmlns="http://www.w3.org/2000/svg">
<g clip-path="url(#clip0_2201_57)">
<path d="M137.768 14.8555C137.754 14.8094 137.74 14.7633 137.722 14.7173C126.811 14.7219 115.904 14.7173 104.998 14.7219C104.97 14.7541 104.952 14.7864 104.947 14.8278C104.947 23.2886 104.947 31.7447 104.942 40.2055C105.011 40.6568 105.26 41.0667 105.592 41.3753C105.606 41.3799 105.638 41.3844 105.652 41.3891C105.822 41.5686 106.066 41.6563 106.297 41.7391C106.467 41.73 106.633 41.8036 106.803 41.7852H120.344C120.473 41.7806 120.607 41.8036 120.731 41.753C120.736 41.7347 120.74 41.7023 120.745 41.6839C120.749 41.6609 120.754 41.6102 120.759 41.5826C121.049 39.9615 121.33 38.3356 121.638 36.7144L121.666 36.5071C120.413 36.5025 119.156 36.5071 117.903 36.5024C117.599 36.4933 117.286 36.5024 116.982 36.4656C116.462 36.4425 115.936 36.461 115.416 36.4103C114.771 36.4103 114.131 36.3504 113.486 36.3504C112.98 36.2998 112.468 36.3182 111.957 36.2952C111.626 36.2538 111.285 36.2722 110.949 36.2583C110.4 36.1985 109.843 36.24 109.295 36.18C108.715 36.1847 108.134 36.134 107.554 36.1201C107.559 36.1155 107.563 36.0971 107.563 36.0925C107.757 36.0971 107.946 36.0833 108.139 36.0787C108.567 36.0234 109 36.0603 109.429 36.0004C109.875 36.0004 110.318 35.9405 110.764 35.9405C111.16 35.8852 111.561 35.9175 111.957 35.8622C112.422 35.8622 112.878 35.8024 113.344 35.7977C113.726 35.7471 114.113 35.7747 114.495 35.724C114.942 35.7286 115.384 35.6596 115.831 35.6642C116.268 35.6134 116.715 35.6272 117.152 35.5812C117.111 35.4109 117.079 35.2404 117.042 35.0699C117.01 34.964 116.881 34.9871 116.798 34.9732C115.798 34.8303 114.804 34.6877 113.809 34.5495C113.873 34.4988 113.961 34.5218 114.034 34.5126C114.808 34.4527 115.577 34.3836 116.351 34.3284C116.526 34.3192 116.697 34.2869 116.872 34.2823C116.793 34.0429 116.747 33.7803 116.641 33.5593C114.988 33.306 113.334 33.0803 111.685 32.8085C112.114 32.7394 112.547 32.7072 112.975 32.6612L113.012 32.6473C114.38 32.5044 115.752 32.3432 117.12 32.2098C118.857 32.2006 120.588 32.2051 122.325 32.2098C122.38 32.2006 122.477 32.2281 122.486 32.1498C122.629 31.4038 122.767 30.6577 122.91 29.9114C123.108 28.8752 123.421 27.8527 123.904 26.9085C124.664 25.3887 125.866 24.099 127.331 23.2424C128.699 22.441 130.283 22.0541 131.859 21.9804C132.37 21.9344 132.886 21.9482 133.392 22.0127C133.724 22.091 134.065 22.1831 134.327 22.4088C134.544 22.5838 134.673 22.8417 134.769 23.0996C134.981 23.7122 135.101 24.3478 135.202 24.988C135.207 25.2459 135.253 25.5361 135.115 25.771C134.986 26.0013 134.728 26.1118 134.484 26.1809C133.595 26.4112 132.665 26.1947 131.776 26.4112C131.043 26.5678 130.362 26.973 129.896 27.558C129.348 28.2396 129.058 29.087 128.897 29.9346C128.773 30.6899 128.616 31.4452 128.492 32.2052C129.367 32.2099 130.247 32.2005 131.126 32.2098C131.476 32.2098 131.835 32.4032 131.978 32.7348C132.163 33.1586 132.121 33.6376 132.061 34.0843C131.987 34.5864 131.868 35.0837 131.642 35.5443C131.453 35.9358 131.14 36.2951 130.712 36.4333C130.491 36.5208 130.251 36.5024 130.016 36.5024C129.242 36.5024 128.469 36.5115 127.695 36.5024C127.571 37.0689 127.488 37.6492 127.377 38.2249C127.175 39.3441 126.976 40.4679 126.774 41.5917C126.769 41.6286 126.765 41.7068 126.765 41.7483C127.128 41.7667 127.492 41.7483 127.856 41.7575C130.555 41.7575 133.259 41.7528 135.962 41.7575C136.252 41.7667 136.547 41.6976 136.8 41.5548C136.952 41.4996 137.045 41.366 137.178 41.2923C137.307 41.2186 137.344 41.0667 137.455 40.9699C137.574 40.7581 137.699 40.5371 137.708 40.2882C137.722 40.2882 137.758 40.2836 137.777 40.2791C137.763 31.8046 137.777 23.33 137.768 14.8555Z" fill="url(#paint0_linear_2201_57)" stroke="#FCD109" stroke-width="0.0043294"/>
<path d="M109.236 9.28241C109.628 9.15806 110.038 9.24096 110.439 9.21333C117.96 9.21793 125.481 9.21333 133.002 9.21333C133.449 9.1949 133.84 9.44822 134.255 9.57718C134.586 9.71075 134.932 9.81668 135.263 9.95946C135.333 9.98709 135.383 10.047 135.434 10.0976C135.429 10.7056 135.434 11.3181 135.434 11.9307C135.439 12.0919 135.411 12.2577 135.466 12.4143C135.563 12.4281 135.613 12.5018 135.678 12.5617C135.982 12.6999 136.24 12.9256 136.516 13.1098C136.931 13.4046 137.373 13.6625 137.778 13.9665C137.797 14.0862 137.783 14.2106 137.746 14.3211C137.705 14.4501 137.732 14.5882 137.718 14.7172C126.807 14.7218 115.901 14.7172 104.994 14.7218C104.971 14.5698 105.013 14.4178 104.948 14.275C104.939 14.1553 104.898 13.9987 105.013 13.9158C105.473 13.5934 105.962 13.3032 106.413 12.9624C106.694 12.7828 106.966 12.5985 107.237 12.4143C107.293 12.3222 107.274 12.2071 107.274 12.1057C107.274 11.4379 107.274 10.7701 107.279 10.1022C107.435 9.89958 107.707 9.87655 107.924 9.77523C108.361 9.60942 108.804 9.44822 109.236 9.28241ZM109.264 9.36071C108.675 9.58639 108.08 9.80286 107.491 10.0285C107.413 10.0424 107.371 10.1114 107.33 10.1713C107.334 10.2082 107.339 10.2726 107.339 10.3095C107.334 10.8622 107.339 11.4149 107.334 11.9676C107.339 12.1057 107.32 12.2439 107.371 12.3683C107.311 12.4281 107.247 12.488 107.173 12.5341C106.505 12.967 105.86 13.4368 105.193 13.8651C105.077 13.9342 104.948 14.0263 104.985 14.1783C104.962 14.2612 105.004 14.3303 105.091 14.3073C106.537 14.2981 107.979 14.3165 109.425 14.2935C111.576 14.2935 113.722 14.2981 115.873 14.2935L115.906 14.2796C116.002 14.3027 116.099 14.2935 116.2 14.2935C120.097 14.2935 123.993 14.2981 127.894 14.2935C129.119 14.2981 130.349 14.2935 131.579 14.2935C133.605 14.2935 135.636 14.3119 137.663 14.3027C137.723 14.2889 137.741 14.2474 137.718 14.1737C137.714 14.1 137.741 13.9987 137.663 13.9526C137.341 13.8006 137.064 13.5658 136.756 13.3815C136.645 13.2894 136.502 13.2387 136.419 13.1144C136.102 12.9348 135.807 12.7137 135.494 12.5156C135.434 12.4788 135.388 12.4189 135.337 12.3683C135.365 12.2715 135.374 12.1656 135.374 12.0643C135.369 11.4794 135.374 10.8944 135.369 10.3095C135.383 10.2174 135.379 10.1114 135.296 10.0516C134.743 9.85352 134.195 9.64166 133.647 9.43901C133.476 9.3561 133.287 9.31005 133.103 9.28241H109.563C109.462 9.28702 109.365 9.33768 109.264 9.36071Z" fill="#F8F3B5" stroke="#F8F3B5" stroke-width="0.0043294"/>
<path d="M107.342 10.3096C107.747 10.48 108.18 10.5767 108.59 10.7425C108.811 10.83 108.88 11.0695 108.977 11.263C108.88 11.3597 108.765 11.438 108.65 11.5117C108.226 11.7972 107.793 12.0736 107.374 12.3683C107.323 12.244 107.342 12.1058 107.337 11.9676C107.342 11.4149 107.337 10.8623 107.342 10.3096ZM134.124 10.7425C134.534 10.5813 134.962 10.4708 135.372 10.3096C135.377 10.8945 135.372 11.4794 135.377 12.0644C135.377 12.1657 135.368 12.2716 135.34 12.3683C134.981 12.1196 134.617 11.8847 134.258 11.6406C134.083 11.5117 133.889 11.4149 133.733 11.2584C133.829 11.0649 133.903 10.83 134.124 10.7425Z" fill="#F7B402" stroke="#F7B402" stroke-width="0.0043294"/>
<path d="M114.371 10.9317C114.877 10.812 115.444 11.2633 115.402 11.793C115.407 12.3134 114.859 12.7372 114.357 12.6174C114.154 12.5483 113.961 12.4424 113.836 12.2628C113.675 12.0187 113.638 11.6917 113.767 11.4245C113.859 11.1666 114.108 10.9916 114.371 10.9317ZM127.511 11.2219C127.723 10.987 128.059 10.8534 128.372 10.9363C128.607 11.0054 128.837 11.1574 128.939 11.3877C129.141 11.7838 128.985 12.318 128.589 12.5253C128.239 12.7187 127.796 12.6266 127.529 12.3457C127.258 12.0371 127.239 11.5305 127.511 11.2219Z" fill="#BDA727" stroke="#BDA727" stroke-width="0.0043294"/>
<path d="M108.648 11.5116C108.764 11.4379 108.879 11.3596 108.976 11.2629L109.008 11.2951C109.04 11.5346 109.017 11.7787 109.026 12.0182C109.012 12.7367 109.04 13.4598 109.008 14.1783C107.667 14.1783 106.327 14.1691 104.987 14.1783C104.95 14.0264 105.079 13.9342 105.194 13.8652C105.862 13.4368 106.507 12.967 107.175 12.5341C107.248 12.488 107.313 12.4282 107.373 12.3683C107.792 12.0735 108.225 11.7972 108.648 11.5116ZM133.685 11.4195C133.685 11.3596 133.699 11.309 133.731 11.2583C133.888 11.4149 134.081 11.5116 134.256 11.6406C134.616 11.8847 134.979 12.1196 135.339 12.3683C135.389 12.4189 135.435 12.4788 135.495 12.5157C135.808 12.7137 136.103 12.9348 136.421 13.1144C136.504 13.2388 136.647 13.2894 136.757 13.3815C137.066 13.5658 137.342 13.8007 137.665 13.9527C137.743 13.9987 137.715 14.1 137.72 14.1737C136.379 14.1783 135.044 14.1691 133.704 14.1783C133.681 13.9941 133.694 13.8099 133.69 13.6303C133.69 12.8933 133.681 12.1564 133.685 11.4195Z" fill="#F7E62D" stroke="#F7E62D" stroke-width="0.0043294"/>
<path d="M137.72 14.174C136.38 14.1786 135.044 14.1694 133.704 14.1786C133.681 13.9944 133.695 13.8102 133.69 13.6305C133.69 12.8936 133.681 12.1567 133.685 11.4198C133.685 11.3599 133.699 11.3092 133.731 11.2586C133.828 11.0651 133.902 10.8302 134.123 10.7427C134.533 10.5815 134.961 10.471 135.371 10.3098C135.385 10.2177 135.38 10.1117 135.297 10.0519C134.745 9.85383 134.197 9.64196 133.648 9.43931C133.478 9.35641 133.289 9.31035 133.105 9.28271H109.565C109.464 9.28732 109.367 9.33798 109.266 9.36101C108.676 9.58669 108.082 9.80316 107.492 10.0288C107.414 10.0427 107.373 10.1117 107.331 10.1716C107.336 10.2085 107.34 10.2729 107.34 10.3098C107.746 10.4802 108.179 10.5769 108.589 10.7427C108.81 10.8302 108.879 11.0697 108.975 11.2632L109.008 11.2954C109.04 11.5349 109.017 11.779 109.026 12.0185C109.012 12.737 109.04 13.4601 109.008 14.1786C107.667 14.1786 106.327 14.1694 104.987 14.1786C104.964 14.2615 105.005 14.3306 105.093 14.3076C106.539 14.2984 107.98 14.3168 109.427 14.2938C111.578 14.2938 113.724 14.2984 115.875 14.2938L115.907 14.2799C116.004 14.303 116.1 14.2938 116.202 14.2938C120.098 14.2938 123.995 14.2984 127.896 14.2938C129.121 14.2984 130.351 14.2938 131.58 14.2938C133.607 14.2938 135.638 14.3122 137.664 14.303C137.725 14.2892 137.743 14.2477 137.72 14.174ZM113.765 11.4244C113.858 11.1665 114.106 10.9914 114.369 10.9316C114.875 10.8118 115.442 11.2632 115.401 11.7928C115.405 12.3133 114.857 12.737 114.355 12.6173C114.152 12.5482 113.959 12.4423 113.835 12.2626C113.673 12.0185 113.637 11.6915 113.765 11.4244ZM127.509 11.2217C127.721 10.9868 128.057 10.8533 128.37 10.9362C128.605 11.0053 128.835 11.1573 128.937 11.3875C129.139 11.7836 128.983 12.3179 128.587 12.5252C128.237 12.7186 127.795 12.6265 127.527 12.3455C127.256 12.0369 127.237 11.5303 127.509 11.2217Z" fill="url(#paint1_radial_2201_57)" stroke="#FCD109" stroke-width="0.0043294"/>
<path d="M128.685 16.1981C128.749 16.2119 128.349 15.8137 128.427 15.7952C128.501 15.8045 128.78 15.5876 129.118 15.7645C129.456 15.9415 129.372 16.3556 129.334 16.5091C129.288 16.6919 129.172 16.8085 129.08 16.9006C129.029 16.9421 128.915 17.0066 128.846 17.002C128.888 16.7763 128.754 16.7394 128.745 16.5091L128.685 16.1981Z" fill="url(#paint2_linear_2201_57)" stroke="#FCD109" stroke-width="0.0043294"/>
<path d="M113.962 16.4476C113.952 16.6779 113.819 16.7148 113.86 16.9405C113.791 16.9451 113.678 16.8806 113.627 16.8391C113.535 16.747 113.419 16.6304 113.373 16.4476C113.335 16.2941 113.251 15.88 113.589 15.703C113.926 15.526 114.206 15.7429 114.279 15.7338C114.358 15.7522 113.958 16.1504 114.022 16.1366L113.962 16.4476Z" fill="url(#paint3_linear_2201_57)" stroke="#FCD109" stroke-width="0.0043294"/>
<path d="M128.079 19.1485C128.148 19.0884 128.194 19.0884 128.286 19.0884C127.733 20.2859 127.089 21.4834 126.119 22.4157C126.015 22.5083 125.906 22.5941 125.791 22.6726C125.68 22.7538 125.571 22.83 125.463 22.9076C125.357 22.9812 125.252 23.0551 125.149 23.1323C124.887 23.275 124.657 23.4731 124.366 23.5606C123.837 23.8139 123.266 23.9843 122.69 24.1041C122.464 24.141 122.234 24.1962 122.004 24.2008C121.718 24.2837 121.414 24.2238 121.124 24.2423C120.963 24.2699 120.82 24.1778 120.664 24.1962C120.528 24.177 120.392 24.154 120.257 24.1271C120.121 24.0991 119.985 24.0669 119.85 24.0304C117.739 23.3717 115.666 21.7597 115.062 19.5796C115.035 19.4328 115.022 19.2838 115.021 19.1344C115.086 19.2634 115.153 19.3914 115.222 19.5183C116.081 21.3913 117.785 22.8651 119.798 23.3095C119.962 23.384 120.138 23.3579 120.295 23.4224C120.438 23.4224 120.576 23.4178 120.714 23.4638C121.189 23.473 121.663 23.4684 122.137 23.4684C122.202 23.473 122.262 23.4408 122.326 23.427C123.117 23.4002 123.892 23.1845 124.613 22.8575C124.757 22.7921 124.899 22.7223 125.039 22.6486C125.161 22.5842 125.281 22.5145 125.397 22.4396C125.511 22.366 125.622 22.2877 125.729 22.2049C126.582 21.5294 127.319 20.6543 127.819 19.648C127.914 19.4669 128.002 19.2992 128.079 19.1485Z" fill="#BDA727" stroke="#BDA727" stroke-width="0.0043294"/>
<path d="M127.333 23.2427C128.7 22.4413 130.285 22.0544 131.86 21.9807C132.371 21.9347 132.887 21.9485 133.394 22.013C133.725 22.0913 134.066 22.1834 134.329 22.4091C134.195 22.4183 134.066 22.3584 133.933 22.34C133.555 22.2663 133.164 22.2939 132.781 22.2847C131.671 22.2847 130.552 22.3722 129.479 22.6762C128.917 22.8466 128.355 23.0447 127.844 23.3394C126.96 23.8276 126.163 24.4724 125.518 25.2462C124.367 26.5681 123.69 28.2445 123.363 29.9533C123.206 30.8698 123.026 31.7817 122.884 32.7028C122.653 32.7258 122.418 32.7121 122.188 32.7121C121.175 32.7075 120.162 32.7028 119.148 32.6937C118.932 32.7028 118.72 32.6523 118.503 32.666C116.661 32.6752 114.819 32.6614 112.977 32.6614L113.013 32.6475C114.381 32.5047 115.754 32.3435 117.122 32.21C118.858 32.2008 120.59 32.2053 122.326 32.21C122.381 32.2008 122.478 32.2283 122.487 32.1501C122.63 31.404 122.768 30.6579 122.911 29.9117C123.109 28.8755 123.422 27.853 123.906 26.9088C124.666 25.3889 125.868 24.0993 127.333 23.2427Z" fill="#0D69B3" stroke="#0D69B3" stroke-width="0.0043294"/>
<path d="M129.478 22.6762C130.551 22.3722 131.67 22.2847 132.78 22.2847C133.162 22.2939 133.554 22.2662 133.931 22.3399C134.065 22.3584 134.194 22.4182 134.328 22.409C134.544 22.584 134.673 22.842 134.77 23.0999C134.982 23.7124 135.101 24.348 135.203 24.9882C135.207 25.2462 135.253 25.5363 135.115 25.7712C134.986 26.0015 134.728 26.112 134.484 26.1811C133.595 26.4114 132.665 26.1949 131.776 26.4114C131.044 26.568 130.362 26.9733 129.897 27.5582C129.349 28.2398 129.059 29.0872 128.897 29.9348C128.773 30.6901 128.616 31.4454 128.492 32.2054C128.437 32.3759 128.405 32.5601 128.372 32.7398C129.243 32.7536 130.113 32.7397 130.984 32.7489C131.315 32.7397 131.647 32.7581 131.979 32.7351C132.163 33.1588 132.121 33.6379 132.062 34.0846C131.988 34.5866 131.868 35.084 131.642 35.5446C131.454 35.936 131.14 36.2953 130.712 36.4335C130.491 36.521 130.252 36.5026 130.017 36.5026C129.243 36.5026 128.469 36.5118 127.695 36.5026C127.571 37.0691 127.488 37.6494 127.378 38.2251C127.175 39.3443 126.977 40.4681 126.774 41.5919C126.77 41.6288 126.765 41.7071 126.765 41.7485V41.7531C124.752 41.7531 122.744 41.7578 120.731 41.7531C120.736 41.7348 120.741 41.7025 120.745 41.6841C120.75 41.661 120.754 41.6104 120.759 41.5828C120.764 41.6197 120.768 41.6888 120.773 41.7209C120.897 41.7348 121.123 41.7992 121.155 41.6197C121.468 39.9247 121.759 38.2206 122.081 36.5256C121.957 36.498 121.828 36.498 121.699 36.521C121.68 36.5855 121.662 36.6499 121.639 36.7144L121.666 36.5072C120.414 36.5025 119.156 36.5072 117.904 36.5025C117.6 36.4934 117.287 36.5025 116.983 36.4657C116.462 36.4426 115.937 36.4611 115.417 36.4103C114.772 36.4103 114.132 36.3505 113.487 36.3505C112.98 36.2999 112.469 36.3182 111.958 36.2952C111.626 36.2538 111.285 36.2722 110.949 36.2584C110.401 36.1985 109.844 36.2401 109.296 36.1801C108.715 36.1848 108.135 36.134 107.555 36.1202C107.559 36.1156 107.564 36.0972 107.564 36.0926C107.757 36.0972 107.946 36.0833 108.14 36.0787C108.568 36.0235 109.001 36.0603 109.429 36.0005C109.876 36.0005 110.318 35.9406 110.765 35.9406C111.161 35.8853 111.562 35.9175 111.958 35.8623C112.423 35.8623 112.879 35.8024 113.344 35.7978C113.726 35.7472 114.113 35.7748 114.496 35.7241C114.942 35.7287 115.384 35.6597 115.831 35.6642C116.269 35.6135 116.715 35.6273 117.153 35.5813C117.112 35.4109 117.079 35.2405 117.043 35.07C117.01 34.964 116.881 34.9871 116.798 34.9733C115.799 34.8304 114.804 34.6877 113.809 34.5495C113.874 34.4988 113.961 34.5218 114.035 34.5127C114.809 34.4527 115.578 34.3836 116.352 34.3285C116.527 34.3192 116.697 34.287 116.872 34.2824C116.794 34.0429 116.748 33.7804 116.642 33.5593C114.988 33.306 113.335 33.0803 111.686 32.8086C112.114 32.7395 112.547 32.7072 112.976 32.6612C114.818 32.6612 116.66 32.675 118.503 32.6658C118.719 32.652 118.931 32.7027 119.147 32.6935C120.161 32.7027 121.174 32.7074 122.187 32.7118C122.417 32.7118 122.652 32.7257 122.883 32.7027C123.025 31.7815 123.205 30.8695 123.362 29.9531C123.689 28.2443 124.366 26.5679 125.517 25.2461C126.162 24.4723 126.959 23.8275 127.843 23.3392C128.354 23.0446 128.916 22.8466 129.478 22.6762Z" fill="#107BD4" stroke="#107BD4" stroke-width="0.0043294"/>
<path d="M128.492 32.2056C129.367 32.2103 130.247 32.201 131.126 32.2103C131.476 32.2103 131.836 32.4037 131.978 32.7352C131.647 32.7583 131.315 32.7399 130.984 32.7491C130.113 32.7399 129.242 32.7538 128.372 32.7399C128.404 32.5603 128.436 32.376 128.492 32.2056ZM121.698 36.5212C121.827 36.4982 121.956 36.4982 122.081 36.5258C121.758 38.2208 121.468 39.9249 121.155 41.6198C121.123 41.7994 120.897 41.735 120.773 41.7211C120.768 41.6889 120.763 41.6198 120.759 41.5829C121.049 39.9618 121.33 38.3359 121.638 36.7147C121.662 36.6501 121.68 36.5857 121.698 36.5212Z" fill="#0D69B3" stroke="#0D69B3" stroke-width="0.0043294"/>
<path d="M128.892 16.3269C128.855 16.2579 128.851 16.1749 128.851 16.0966L128.814 16.1013C128.759 15.8986 128.588 15.7052 128.367 15.6959C128.201 15.6821 127.994 15.6867 127.898 15.8433C127.713 16.092 127.801 16.4098 127.792 16.6908C127.792 16.7092 127.796 16.7415 127.796 16.7599C127.796 16.9487 127.773 17.1329 127.741 17.3172C127.713 17.3724 127.7 17.4323 127.7 17.4968C127.621 17.9297 127.465 18.3581 127.253 18.7496C127.211 18.8048 127.179 18.8647 127.165 18.9292C127.027 19.1687 126.861 19.3898 126.691 19.6108C126.663 19.6339 126.64 19.6615 126.617 19.6891C126.497 19.8365 126.369 19.9609 126.235 20.0898C126.203 20.1083 126.18 20.1313 126.152 20.1497C125.995 20.3017 125.82 20.4445 125.632 20.5596C125.608 20.5734 125.585 20.5919 125.558 20.6103C124.379 21.3886 122.946 21.711 121.551 21.7249C120.367 21.7617 119.174 21.5084 118.106 20.9972C118.087 20.9879 118.041 20.9695 118.023 20.9603C117.843 20.8636 117.659 20.7807 117.493 20.6609C117.456 20.6425 117.419 20.6195 117.378 20.6011C117.208 20.4997 117.046 20.3892 116.894 20.2602C116.844 20.2142 116.788 20.1773 116.733 20.1359C116.567 20.0023 116.397 19.8595 116.254 19.6983C116.217 19.6569 116.18 19.62 116.144 19.5832C115.642 19.0627 115.25 18.4272 115.043 17.7363C114.845 17.1882 114.873 16.5895 114.85 16.0137C114.684 15.7604 114.334 15.6177 114.057 15.7742C113.942 15.8572 113.928 16.0091 113.841 16.1151C113.698 17.635 114.348 19.1503 115.384 20.2464C115.384 20.2833 115.402 20.3063 115.435 20.3201C115.619 20.4905 115.798 20.6655 115.983 20.8314C116.015 20.8636 116.052 20.8958 116.093 20.9235C116.277 21.0755 116.475 21.2136 116.669 21.3564C116.706 21.384 116.743 21.4071 116.784 21.4301C117.037 21.5775 117.277 21.7525 117.549 21.8538C117.567 21.8676 117.599 21.8907 117.618 21.8999C118.493 22.319 119.437 22.6046 120.404 22.6967C120.51 22.6967 120.616 22.7059 120.722 22.7289C121.182 22.7566 121.643 22.7427 122.104 22.7335C123.527 22.6092 124.996 22.2637 126.184 21.4255L126.198 21.4439C126.235 21.4117 126.267 21.384 126.304 21.3564C126.493 21.2182 126.677 21.0709 126.861 20.9189C126.903 20.8866 126.949 20.8498 126.99 20.8083C127.193 20.5872 127.428 20.3846 127.598 20.1313L127.626 20.1451C127.64 20.1221 127.663 20.076 127.677 20.053C127.833 19.8411 127.976 19.62 128.114 19.399C128.123 19.3851 128.146 19.3621 128.156 19.3483L128.137 19.3299C128.151 19.3115 128.183 19.2746 128.197 19.2562C128.45 18.7403 128.676 18.2015 128.754 17.6304C128.787 17.6165 128.805 17.5889 128.805 17.5567C128.81 17.3724 128.874 17.1974 128.856 17.0132C128.897 16.7875 128.901 16.5572 128.892 16.3269Z" fill="white" stroke="white" stroke-width="0.0043294"/>
<mask id="mask0_2201_57" style="mask-type:luminance" maskUnits="userSpaceOnUse" x="113" y="15" width="16" height="8">
<path d="M128.9 16.3269C128.863 16.2579 128.859 16.1749 128.859 16.0966L128.822 16.1013C128.767 15.8986 128.596 15.7052 128.375 15.6959C128.209 15.6821 128.002 15.6867 127.905 15.8433C127.721 16.092 127.809 16.4098 127.799 16.6908C127.799 16.7092 127.804 16.7415 127.804 16.7599C127.804 16.9487 127.781 17.1329 127.749 17.3172C127.721 17.3724 127.707 17.4323 127.707 17.4968C127.629 17.9297 127.472 18.3581 127.261 18.7496C127.219 18.8048 127.187 18.8647 127.173 18.9292C127.035 19.1687 126.869 19.3898 126.699 19.6108C126.671 19.6339 126.648 19.6615 126.625 19.6891C126.505 19.8365 126.376 19.9609 126.243 20.0898C126.21 20.1083 126.187 20.1313 126.16 20.1497C126.003 20.3017 125.828 20.4445 125.639 20.5596C125.616 20.5734 125.593 20.5919 125.566 20.6103C124.386 21.3886 122.954 21.711 121.559 21.7249C120.375 21.7617 119.182 21.5084 118.113 20.9972C118.095 20.9879 118.049 20.9695 118.031 20.9603C117.851 20.8636 117.667 20.7807 117.501 20.6609C117.464 20.6425 117.427 20.6195 117.386 20.6011C117.215 20.4997 117.054 20.3892 116.902 20.2602C116.851 20.2142 116.796 20.1773 116.741 20.1359C116.575 20.0023 116.405 19.8595 116.262 19.6983C116.225 19.6569 116.188 19.62 116.151 19.5832C115.65 19.0627 115.258 18.4272 115.051 17.7363C114.853 17.1882 114.88 16.5895 114.857 16.0137C114.691 15.7604 114.342 15.6177 114.065 15.7742C113.95 15.8572 113.936 16.0091 113.849 16.1151C113.706 17.635 114.355 19.1503 115.392 20.2464C115.392 20.2833 115.41 20.3063 115.442 20.3201C115.627 20.4905 115.806 20.6655 115.99 20.8314C116.023 20.8636 116.059 20.8958 116.101 20.9235C116.285 21.0755 116.483 21.2136 116.677 21.3564C116.713 21.384 116.75 21.4071 116.792 21.4301C117.045 21.5775 117.285 21.7525 117.556 21.8538C117.575 21.8676 117.607 21.8907 117.625 21.8999C118.501 22.319 119.445 22.6046 120.412 22.6967C120.518 22.6967 120.624 22.7059 120.73 22.7289C121.19 22.7566 121.651 22.7427 122.111 22.7335C123.534 22.6092 125.004 22.2637 126.192 21.4255L126.206 21.4439C126.243 21.4117 126.275 21.384 126.312 21.3564C126.501 21.2182 126.685 21.0709 126.869 20.9189C126.911 20.8866 126.957 20.8498 126.998 20.8083C127.201 20.5872 127.436 20.3846 127.606 20.1313L127.634 20.1451C127.648 20.1221 127.671 20.076 127.685 20.053C127.841 19.8411 127.984 19.62 128.122 19.399C128.131 19.3851 128.154 19.3621 128.163 19.3483L128.145 19.3299C128.159 19.3115 128.191 19.2746 128.205 19.2562C128.458 18.7403 128.684 18.2015 128.762 17.6304C128.795 17.6165 128.813 17.5889 128.813 17.5567C128.818 17.3724 128.882 17.1974 128.864 17.0132C128.905 16.7875 128.909 16.5572 128.9 16.3269V16.3269Z" fill="white"/>
</mask>
<g mask="url(#mask0_2201_57)">
<path d="M113.49 16.1714C113.864 16.2885 114.721 15.9938 114.964 16.2635M113.705 17.3074C114.063 17.1829 114.83 16.8882 115.148 17.0618M114.074 18.4435C114.247 18.4995 114.588 18.1957 114.757 18.1067C115.009 17.9742 115.267 17.8726 115.547 17.8295M114.626 19.641C114.805 19.3875 115.018 19.177 115.276 18.9969C115.531 18.8185 116.23 18.3417 116.53 18.5049M115.148 20.5008C115.351 20.3398 115.433 20.0551 115.646 19.886C115.903 19.6814 116.297 19.6447 116.561 19.5182M116.016 21.1378C116.076 20.6926 116.528 20.1552 116.96 20.1937M116.684 21.7597C116.912 21.7368 117.104 21.2265 117.259 21.0536C117.49 20.7945 117.729 20.7148 118.034 20.6236M118.004 22.3124C117.989 21.9901 118.322 21.0663 118.71 21.1149M118.986 22.6194C118.97 22.2386 119.167 21.0932 119.631 21.0535M120 23.2335C119.912 22.701 119.917 21.9306 120.337 21.5447M121.259 23.3563C121.212 22.9124 120.771 22.0151 121.259 21.6676M122.61 23.0493C122.399 22.8051 122.277 21.8421 122.364 21.5754M123.899 22.8343C123.737 22.5394 123.535 22.2625 123.474 21.9201C123.437 21.7155 123.502 21.4241 123.469 21.2684M124.974 22.3738C124.622 22.1433 124.524 21.2964 124.636 20.9306M126.018 21.9132C125.767 21.3756 125.5 20.9589 125.496 20.3472M127.031 20.9306C126.642 20.6687 126.145 20.1926 126.202 19.6717M128.106 20.1016C127.514 19.9705 126.804 19.4412 126.448 18.9655M128.597 19.0883C128.17 18.9968 126.76 18.4467 126.847 17.8908M129.058 18.0137C128.463 17.7957 127.598 17.5997 127.123 17.1846M129.365 17.0311C128.99 17.0631 128.454 16.8818 128.073 16.8161C127.65 16.7432 127.258 16.6008 126.847 16.5091M128.996 16.0793C128.274 16.1225 127.596 15.8753 126.939 15.6494" stroke="#D1D1D1" stroke-width="0.0921149"/>
</g>
<path d="M36.5554 18.2938C37.2229 18.193 37.991 18.1301 38.5576 18.5456C38.9102 18.81 39.0361 19.2885 39.0109 19.7167C39.0361 20.4219 38.7087 21.1774 38.0792 21.5427C37.5251 21.8449 36.8577 21.87 36.2406 21.807C35.8251 21.7567 35.4096 21.5301 35.1955 21.1523C34.7169 20.0568 35.3087 18.5079 36.5554 18.2938ZM16.5835 19.0871C16.6213 18.7093 16.9613 18.3693 17.3516 18.382C20.2606 18.382 23.1569 18.3945 26.0532 18.382C26.368 18.3568 26.7081 18.4952 26.8591 18.7723C27.0731 19.1501 26.8843 19.5656 26.8591 19.956C26.771 20.4848 26.7961 21.1901 26.1792 21.3915C24.0636 21.4545 21.948 21.3915 19.8324 21.4167C19.6309 22.7514 19.4421 24.0737 19.2405 25.3959C19.2405 25.4463 19.2532 25.5597 19.2532 25.6099C20.802 25.5974 22.3509 25.6099 23.8998 25.5974C24.328 25.5722 24.7812 25.9375 24.7434 26.3907C24.7057 26.8567 24.6049 27.31 24.542 27.7759C24.4916 28.0907 24.2398 28.3804 23.9123 28.4433C22.1871 28.4811 20.4367 28.4055 18.7117 28.4811C18.4345 30.3826 18.1071 32.2839 17.8175 34.1855C17.7798 34.5633 17.4775 34.8907 17.0997 34.9032C16.382 34.9159 15.6641 34.9159 14.9464 34.9032C14.4805 34.9159 14.1027 34.3994 14.2286 33.9587C14.997 28.9975 15.7902 24.0487 16.5835 19.0871ZM29.3776 18.407C30.0324 18.3567 30.6998 18.3945 31.3547 18.382C31.7577 18.3568 32.1606 18.6715 32.1983 19.0871C32.1983 19.4144 32.1101 19.7419 32.0724 20.0693C31.5435 23.4441 31.002 26.819 30.4731 30.1938C30.3975 30.7353 30.259 31.3145 30.4228 31.8686C30.6117 32.4226 31.4553 32.1834 31.6568 32.7626C31.7827 33.2285 31.6441 33.7196 31.6064 34.1982C31.5686 34.8278 30.8508 34.9662 30.3598 35.105C29.2895 35.3064 27.9923 35.1553 27.2242 34.2737C26.6701 33.6316 26.6323 32.7248 26.7457 31.919C27.4131 27.6375 28.0805 23.3561 28.7606 19.0619C28.7984 18.7471 29.0502 18.4575 29.3776 18.407ZM54.3739 19.0871C54.4116 18.7093 54.7517 18.382 55.1294 18.382H57.0435C57.522 18.3693 57.9125 18.8857 57.7991 19.3389C57.3584 22.1345 56.9051 24.9301 56.4643 27.7255C57.1317 27.6248 57.8873 27.4989 58.3533 26.9575C59.1339 26.0759 59.7762 25.0561 60.2547 23.9857C60.4183 23.5701 60.5065 22.9657 61.048 22.8901C61.7658 22.8649 62.4961 22.8775 63.2139 22.8901C63.7051 22.8775 64.0702 23.4315 63.9065 23.8848C63.7177 24.5524 63.4029 25.1693 63.0755 25.7612C62.3451 26.9449 61.5392 28.116 60.4813 29.0478C60.9473 30.4456 61.5392 31.8056 62.0554 33.1782C62.2065 33.6315 62.5718 34.1604 62.2317 34.6012C61.8413 35.1301 61.1109 34.8655 60.5695 34.9285C60.0028 34.8655 59.1843 35.1552 58.8695 34.513C58.2776 33.1403 57.7866 31.7301 57.182 30.3575C56.8294 30.3699 56.4643 30.3827 56.1116 30.3449C56.0866 30.3953 56.0361 30.4959 56.0109 30.5464C55.822 31.8056 55.6206 33.0649 55.419 34.3241C55.3434 34.6263 55.1042 34.8908 54.7768 34.916C54.1095 34.9412 53.4294 34.9285 52.7494 34.9285C52.4597 34.9285 52.1954 34.7396 52.0694 34.4878C51.9435 34.2358 52.019 33.9463 52.0569 33.6693C52.8376 28.8085 53.6057 23.9478 54.3739 19.0871ZM89.3687 20.4597C89.4569 20.107 89.7968 19.8678 90.1495 19.8804C90.6532 19.893 91.1695 19.8678 91.6857 19.893C92.1013 19.9056 92.4287 20.3211 92.3783 20.7241C92.3027 21.4419 92.1264 22.1597 92.0761 22.8774C92.5672 22.8774 93.0708 22.8648 93.562 22.8774C94.0028 22.8774 94.368 23.3308 94.2924 23.7588C94.2294 24.1493 94.1412 24.5271 94.0782 24.9173C94.0153 25.2449 93.7383 25.5093 93.4235 25.5596C92.819 25.5974 92.2272 25.5344 91.6354 25.5974C91.3835 27.2847 91.1065 28.9721 90.842 30.6596C90.8042 31.05 90.7791 31.4907 91.0057 31.8307C91.3458 32.2463 91.9375 32.0951 92.4161 32.1455C92.7939 32.2588 93.0331 32.6745 92.9701 33.0523C92.9071 33.4803 92.8946 33.9085 92.7939 34.324C92.6428 34.7899 92.1013 34.8781 91.6857 34.9914C90.5397 35.2937 89.2175 35.2937 88.1976 34.6262C87.2532 33.984 87.102 32.7373 87.2027 31.6795C87.4671 29.6395 87.8828 27.6122 88.1094 25.5596C87.7569 25.5721 87.3287 25.6225 87.0643 25.3077C86.7621 24.9929 86.9132 24.527 86.9635 24.1365C87.0392 23.721 87.0265 23.1795 87.4799 22.9528C87.845 22.8142 88.2606 22.9151 88.651 22.8647C88.8902 22.0589 89.1168 21.253 89.3687 20.4597ZM82.2539 24.5396C83.0472 23.7463 84.0042 23.0915 85.0998 22.7642C85.5783 22.55 86.1953 22.953 86.1828 23.4819C86.0947 24.1745 85.9309 24.8544 85.8176 25.5344C85.7671 25.8745 85.4775 26.1641 85.1375 26.2019C83.9034 26.4159 82.8331 27.1587 81.9768 28.0403C81.7628 28.3049 81.4479 28.5567 81.4102 28.9218C81.1458 30.6847 80.8687 32.4477 80.5917 34.2107C80.5539 34.5884 80.2264 34.9537 79.8361 34.9285H77.9219C77.4813 34.9537 77.0909 34.513 77.1413 34.0722C77.6953 30.584 78.2495 27.1086 78.7909 23.6203C78.8161 23.2678 79.068 22.9278 79.4331 22.89C79.8991 22.8648 80.3649 22.8774 80.8435 22.8774C81.2213 22.8774 81.5738 23.2174 81.5738 23.6078C81.5738 24.1492 81.5235 24.7033 81.5109 25.2573C81.8132 25.0686 82.002 24.7663 82.2539 24.5396ZM35.1828 22.9404C35.8628 22.8019 36.5679 22.9153 37.2479 22.8774C37.6384 22.8271 38.0539 23.0789 38.1168 23.4693C38.1673 23.8219 38.0664 24.1619 38.0286 24.5019C37.5124 27.7383 36.996 30.9745 36.4923 34.2108C36.4546 34.5761 36.1525 34.9412 35.762 34.9286C35.082 34.9286 34.402 34.9412 33.7095 34.9161C33.2813 34.8656 32.9664 34.3746 33.0798 33.959C33.6213 30.5969 34.1377 27.2472 34.6791 23.8849C34.7043 23.5197 34.8051 23.0915 35.1828 22.9404ZM75.9324 23.1042C74.056 22.7515 72.1421 22.4996 70.2405 22.6885C68.5405 22.9027 66.8279 23.6708 65.7828 25.0686C64.3346 26.9071 63.8435 29.3753 64.1708 31.6672C64.3472 32.7627 64.8257 33.8709 65.7198 34.5508C66.5509 35.1931 67.6716 35.2811 68.6791 35.1174C70.0893 34.8404 71.2856 33.9339 72.2679 32.9264C72.3182 33.3545 72.2175 33.7827 72.2427 34.1983C72.2679 34.5885 72.6205 34.9537 73.0108 34.9285H74.2954C74.6731 34.9285 74.988 34.5761 75.0132 34.2108C75.5546 30.7982 76.0961 27.3981 76.625 23.9982C76.7005 23.57 76.3606 23.1545 75.9324 23.1042ZM72.394 29.0352C71.8902 29.9797 71.1849 30.836 70.3916 31.5662C69.9384 31.944 69.359 32.3345 68.7421 32.2086C68.1376 32.0827 67.8479 31.4531 67.7095 30.9115C67.3947 29.5012 67.6843 27.9648 68.4775 26.7434C68.8302 26.1766 69.3968 25.7486 70.0517 25.5722C70.9709 25.3455 71.9406 25.4589 72.8347 25.7107L72.885 25.7612C72.7717 26.8567 72.5576 27.9397 72.394 29.0352ZM51.2132 27.1464C51.2005 25.8871 50.8606 24.5649 49.9791 23.6204C49.3747 22.953 48.468 22.613 47.5865 22.6255C46.1257 22.5753 44.7532 23.2931 43.6829 24.25C43.4435 24.439 43.2799 24.716 43.0155 24.8671C43.0155 24.4514 43.0532 24.0359 43.0405 23.6078C43.0532 23.2174 42.688 22.8774 42.3102 22.8774H41.0257C40.6228 22.8774 40.2954 23.2301 40.2702 23.6204C39.4768 28.6574 38.671 33.6945 37.8776 38.7315C37.7644 39.1974 38.1674 39.676 38.6459 39.6634C39.351 39.6508 40.0688 39.7137 40.7614 39.6129C41.3155 39.4618 41.3028 38.8195 41.391 38.3537C41.5924 37.2455 41.7311 36.1373 41.857 35.0166C44.3377 35.4951 47.2214 35.1678 49.0725 33.2914C50.5835 31.6419 51.2887 29.3626 51.2132 27.1464ZM47.6873 28.4182C47.6118 29.5767 47.1962 30.7478 46.3903 31.5914C45.3452 32.5864 43.7583 32.4477 42.4739 32.1079C42.4489 32.07 42.411 31.9944 42.3984 31.9568C42.5999 30.8612 42.7006 29.753 42.9525 28.6701C43.6577 27.5116 44.5139 26.3404 45.7354 25.6982C46.1887 25.4842 46.8058 25.5346 47.1332 25.9501C47.6873 26.6427 47.7377 27.5745 47.6873 28.4182Z" fill="white" stroke="white" stroke-width="0.0046518"/>
</g>
<defs>
<linearGradient id="paint0_linear_2201_57" x1="121.36" y1="14.7172" x2="121.36" y2="41.7882" gradientUnits="userSpaceOnUse">
<stop stop-color="#F7E830"/>
<stop offset="1" stop-color="#FDCB06"/>
</linearGradient>
<radialGradient id="paint1_radial_2201_57" cx="0" cy="0" r="1" gradientUnits="userSpaceOnUse" gradientTransform="translate(121.217 27.0645) scale(22.0191 22.0191)">
<stop offset="0.596" stop-color="#F29405"/>
<stop offset="0.736" stop-color="#F7D01E"/>
<stop offset="1" stop-color="#FDCB06"/>
</radialGradient>
<linearGradient id="paint2_linear_2201_57" x1="128.892" y1="15.6945" x2="128.9" y2="16.9764" gradientUnits="userSpaceOnUse">
<stop stop-color="#FADA1C"/>
<stop offset="1" stop-color="#FDCB06"/>
</linearGradient>
<linearGradient id="paint3_linear_2201_57" x1="113.814" y1="15.633" x2="113.806" y2="16.9149" gradientUnits="userSpaceOnUse">
<stop stop-color="#FADA1C"/>
<stop offset="1" stop-color="#FDCB06"/>
</linearGradient>
<clipPath id="clip0_2201_57">
<rect width="123.585" height="32.5809" fill="white" transform="translate(14.207 9.20947)"/>
</clipPath>
</defs>
</svg>
