<svg width="111" height="51" viewBox="0 0 111 51" fill="none" xmlns="http://www.w3.org/2000/svg">
<g clip-path="url(#clip0_2201_126)">
<path d="M97.6361 22.662C97.6361 23.0869 97.3022 23.4208 96.8772 23.4208C96.4523 23.4208 96.1184 23.0869 96.1184 22.662C96.1184 22.237 96.4523 21.9031 96.8772 21.9031C97.3022 21.9031 97.6361 22.237 97.6361 22.662ZM95.3747 20.3855C95.3747 20.8104 95.0409 21.1443 94.6159 21.1443C94.191 21.1443 93.8571 20.8104 93.8571 20.3855C93.8571 19.9605 94.191 19.6266 94.6159 19.6266C95.0409 19.6266 95.3747 19.9757 95.3747 20.3855ZM97.6361 20.3855C97.6361 20.8104 97.3022 21.1443 96.8772 21.1443C96.4523 21.1443 96.1184 20.8104 96.1184 20.3855C96.1184 19.9605 96.4523 19.6266 96.8772 19.6266C97.3022 19.6266 97.6361 19.9757 97.6361 20.3855ZM93.0982 20.3855C93.0982 20.8104 92.7644 21.1443 92.3394 21.1443C91.9145 21.1443 91.5806 20.8104 91.5806 20.3855C91.5806 19.9605 91.9145 19.6266 92.3394 19.6266C92.7644 19.6266 93.0982 19.9757 93.0982 20.3855ZM98.9261 17.9572C99.2144 18.2455 99.2144 18.7312 98.9261 19.0347C98.6377 19.3231 98.1521 19.3231 97.8637 19.0347C97.5754 18.7464 97.5754 18.2607 97.8637 17.9572C98.1521 17.6688 98.6225 17.6688 98.9261 17.9572ZM100.808 16.4547C101.096 16.7431 101.096 17.2287 100.808 17.5322C100.52 17.8206 100.034 17.8206 99.7456 17.5322C99.4573 17.2439 99.4573 16.7582 99.7456 16.4547C100.034 16.1512 100.52 16.1512 100.808 16.4547ZM90.4575 20.3855C90.4575 20.8104 90.1236 21.1443 89.6987 21.1443C89.2737 21.1443 88.9398 20.8104 88.9398 20.3855C88.9398 19.9605 89.2737 19.6266 89.6987 19.6266C90.1236 19.6266 90.4575 19.9757 90.4575 20.3855ZM88.1962 20.3855C88.1962 20.8104 87.8623 21.1443 87.4373 21.1443C87.0124 21.1443 86.6785 20.8104 86.6785 20.3855C86.6785 19.9605 87.0124 19.6266 87.4373 19.6266C87.8623 19.6266 88.1962 19.9757 88.1962 20.3855ZM96.8772 24.1796C97.287 24.1796 97.6361 24.5135 97.6361 24.9385C97.6361 25.3634 97.3022 25.6973 96.8772 25.6973C96.4523 25.6973 96.1184 25.3634 96.1184 24.9385C96.1184 24.5135 96.4675 24.1796 96.8772 24.1796ZM88.5756 31.7376C88.5756 32.1626 88.2417 32.4964 87.8168 32.4964C87.3918 32.4964 87.0579 32.1626 87.0579 31.7376C87.0579 31.3127 87.3918 30.9788 87.8168 30.9788C88.2417 30.994 88.5756 31.3278 88.5756 31.7376ZM86.3143 29.4763C86.3143 29.9012 85.9804 30.2351 85.5554 30.2351C85.1305 30.2351 84.7966 29.9012 84.7966 29.4763C84.7966 29.0513 85.1305 28.7175 85.5554 28.7175C85.9804 28.7175 86.3143 29.0513 86.3143 29.4763ZM88.5756 29.4763C88.5756 29.9012 88.2417 30.2351 87.8168 30.2351C87.3918 30.2351 87.0579 29.9012 87.0579 29.4763C87.0579 29.0513 87.3918 28.7175 87.8168 28.7175C88.2417 28.7175 88.5756 29.0513 88.5756 29.4763ZM84.0529 29.4763C84.0529 29.9012 83.7191 30.2351 83.2941 30.2351C82.8692 30.2351 82.5353 29.9012 82.5353 29.4763C82.5353 29.0513 82.8692 28.7175 83.2941 28.7175C83.7191 28.7175 84.0529 29.0513 84.0529 29.4763ZM87.8168 33.2553C88.2265 33.2553 88.5756 33.5892 88.5756 34.0141C88.5756 34.4391 88.2417 34.7729 87.8168 34.7729C87.3918 34.7729 87.0579 34.4391 87.0579 34.0141C87.0731 33.6043 87.407 33.2553 87.8168 33.2553ZM96.8772 26.441C97.287 26.441 97.6361 26.7748 97.6361 27.1998C97.6361 27.6247 97.3022 27.9586 96.8772 27.9586C96.4523 27.9586 96.1184 27.6247 96.1184 27.1998C96.1184 26.7748 96.4675 26.441 96.8772 26.441ZM96.8772 29.0969C97.287 29.0969 97.6361 29.4308 97.6361 29.8557C97.6361 30.2807 97.3022 30.6145 96.8772 30.6145C96.4523 30.6145 96.1184 30.2807 96.1184 29.8557C96.1184 29.4308 96.4675 29.0969 96.8772 29.0969ZM91.9752 26.0615C91.9752 26.4865 91.6413 26.8204 91.2163 26.8204C90.7914 26.8204 90.4575 26.4865 90.4575 26.0615C90.4575 25.6366 90.7914 25.3027 91.2163 25.3027C91.6413 25.3179 91.9752 25.6518 91.9752 26.0615ZM93.2652 23.6333C93.5535 23.9216 93.5535 24.4073 93.2652 24.7108C92.9768 24.9992 92.4912 24.9992 92.2028 24.7108C91.9145 24.4225 91.9145 23.9368 92.2028 23.6333C92.4912 23.3449 92.9616 23.3449 93.2652 23.6333ZM95.1471 22.1308C95.4355 22.4191 95.4355 22.9048 95.1471 23.2083C94.8587 23.4967 94.3731 23.4967 94.0847 23.2083C93.7964 22.92 93.7964 22.4343 94.0847 22.1308C94.3731 21.8272 94.8587 21.8272 95.1471 22.1308ZM90.245 27.048C90.5334 27.3364 90.5334 27.822 90.245 28.1256C89.9567 28.4139 89.471 28.4139 89.1827 28.1256C88.8943 27.8372 88.8943 27.3516 89.1827 27.048C89.471 26.7445 89.9415 26.7445 90.245 27.048ZM60.3925 32.5268C58.632 34.0141 56.568 34.7729 54.2004 34.7729C51.6507 34.7729 49.4501 33.8775 47.5986 32.1019C45.7622 30.2958 44.8364 28.1104 44.8364 25.5304C44.8364 22.9503 45.7622 20.7649 47.5986 18.9589C49.4501 17.1377 51.6507 16.2271 54.2004 16.2271C55.7029 16.2271 57.0233 16.4699 58.1767 16.9707C59.315 17.4564 60.4684 18.2759 61.6218 19.4293L61.7129 19.5204L59.9372 21.4478L59.831 21.3568C58.6927 20.4158 57.8276 19.7784 57.2054 19.4445C56.2948 18.9589 55.2931 18.7312 54.2004 18.7312C52.3033 18.7312 50.7401 19.399 49.4805 20.7193C48.2208 22.0397 47.5834 23.6484 47.5834 25.5152C47.5834 27.3819 48.2208 28.9603 49.4805 30.2958C50.7401 31.6162 52.3185 32.284 54.2004 32.284C55.9457 32.284 57.4331 31.7831 58.632 30.7663C59.8917 29.7191 60.5291 28.3836 60.5594 26.7445H54.3825V24.2555H63.3368V25.8946C63.352 28.6567 62.3655 30.8574 60.3925 32.5268ZM75.7968 32.9062C74.5372 34.1204 73.0195 34.7274 71.259 34.7274C69.4985 34.7274 67.996 34.1204 66.7364 32.9062C65.4767 31.6921 64.8393 30.1441 64.8393 28.2925C64.8393 26.441 65.4615 24.9081 66.706 23.7092C67.9657 22.4798 69.4833 21.8728 71.2438 21.8728C73.0043 21.8728 74.5068 22.4798 75.7665 23.7092C77.0565 24.9233 77.6939 26.4561 77.6939 28.2925C77.6939 30.1289 77.0717 31.6921 75.7968 32.9062ZM74.006 25.3634C73.2927 24.6198 72.3821 24.2403 71.259 24.2403C70.1359 24.2403 69.2102 24.6198 68.4817 25.3634C67.7835 26.0919 67.4345 27.0632 67.4345 28.2925C67.4345 29.5218 67.7987 30.4628 68.512 31.2216C69.2253 31.9653 70.1359 32.3447 71.259 32.3447C72.3821 32.3447 73.2927 31.9653 74.006 31.2216C74.7193 30.478 75.0835 29.5066 75.0835 28.2925C75.0835 27.0936 74.7193 26.1222 74.006 25.3634ZM42.9545 20.5676C42.6965 20.8559 42.3323 20.9925 41.8618 20.9925C41.4217 20.9925 41.0574 20.8559 40.7691 20.5676C40.5111 20.264 40.3745 19.915 40.3745 19.5052C40.3745 19.0954 40.5111 18.7464 40.7691 18.4732C41.0422 18.1848 41.4065 18.0483 41.8618 18.0483C42.3171 18.0483 42.6661 18.2 42.9242 18.5036C43.1973 18.7767 43.3491 19.1258 43.3491 19.5052C43.3491 19.9302 43.2277 20.2944 42.9545 20.5676ZM40.6021 34.4694V22.1156H43.1214V34.4694H40.6021ZM37.1115 32.8455C35.9429 34.09 34.4404 34.7122 32.6192 34.7122C30.6917 34.7122 29.1134 34.0445 27.9144 32.7089C26.7913 31.4493 26.2298 29.8709 26.2298 27.9738C26.2298 26.2588 26.8065 24.817 27.9751 23.6333C29.1589 22.4343 30.5552 21.8424 32.1942 21.8424C33.4843 21.8424 34.6529 22.1308 35.7001 22.6923L35.7759 22.7378V25.4241L35.5635 25.2723C35.1537 24.9992 34.6529 24.7563 34.0913 24.5439C33.545 24.3314 33.0441 24.2252 32.5888 24.2252C31.4202 24.2252 30.4945 24.5894 29.7963 25.3179C29.0982 26.0464 28.7491 27.0177 28.7491 28.247C28.7491 29.4763 29.1134 30.4324 29.8267 31.1913C30.5552 31.9349 31.4961 32.3143 32.6495 32.3143C33.7271 32.3143 34.6073 31.9046 35.3206 31.1002C36.0339 30.2958 36.3982 29.0969 36.3982 27.5185V16.5154H38.8872V27.9131C38.8872 29.9468 38.2953 31.5858 37.1115 32.8455ZM22.208 34.4694V27.2757C22.208 26.3954 21.9348 25.6821 21.3884 25.1206C20.8573 24.5439 20.2047 24.2555 19.4003 24.2555C18.6415 24.2555 17.9889 24.5439 17.4122 25.1206C16.8658 25.6821 16.5926 26.3954 16.5926 27.2757V34.4694H14.1036V27.2757C14.1036 25.6821 14.6045 24.3769 15.591 23.3753C16.5926 22.3584 17.8675 21.8576 19.4003 21.8576C20.9331 21.8576 22.1928 22.3584 23.2096 23.3753C24.2265 24.3921 24.7273 25.6973 24.7273 27.2757V34.4694H22.208ZM9.97559 34.4694V16.5306H12.6163V34.4694H9.97559Z" fill="white"/>
</g>
<defs>
<clipPath id="clip0_2201_126">
<rect width="91.0494" height="18.5459" fill="white" transform="translate(9.97559 16.2271)"/>
</clipPath>
</defs>
</svg>
