<svg width="137" height="51" viewBox="0 0 137 51" fill="none" xmlns="http://www.w3.org/2000/svg">
<path fill-rule="evenodd" clip-rule="evenodd" d="M30.9361 19.7722C26.6047 19.7722 23.8799 22.787 23.8799 27.0016C23.8799 31.0647 26.8896 33.7981 30.9361 33.7981C34.5166 33.7981 37.3164 31.7553 37.7055 28.2035H33.4274C33.2186 29.6097 32.44 30.4769 30.9099 30.4769C29.0417 30.4769 28.2903 28.7153 28.2903 27.0016C28.2903 25.1641 28.6793 23.093 31.1435 23.093C32.2578 23.093 33.2699 23.8882 33.2976 25.0111H37.5746C37.2656 21.5101 34.283 19.7722 30.9361 19.7722ZM78.1958 19.7717C76.2868 19.7717 74.9445 20.6359 74.1417 22.0265H74.0874V20.1557H69.8098V33.4156H74.2182V26.5305C74.2182 24.5948 75.0653 23.3462 76.6039 23.3467C78.8918 23.3467 78.8098 25.1877 78.8098 27.0006V33.4156H83.2197V24.9064C83.2197 22.9898 82.6837 19.7717 78.1958 19.7717ZM91.0671 19.7717C89.5356 19.7717 87.9799 20.0284 86.7861 20.6938C85.5932 21.3813 84.7628 22.5067 84.6858 24.2435H88.8103C89.0182 23.1197 89.7958 22.5847 91.0148 22.5847C91.9237 22.5847 93.1412 22.9642 93.1412 23.9607C93.1412 24.7811 92.726 25.0342 91.9746 25.1887C88.914 25.8002 84.1412 25.4696 84.1412 29.7853C84.1412 32.5208 86.1645 33.7971 88.7303 33.7971C90.3409 33.7971 92.0279 33.3376 93.1679 32.1634C93.2207 32.5978 93.2711 33.0049 93.4266 33.4156H97.8637C97.3448 32.3683 97.3453 31.1407 97.3453 30.0159V24.2159C97.3453 20.4628 94.2555 19.7717 91.0666 19.7717H91.0671ZM93.0904 27.2064C93.1941 29.9414 92.492 31.1146 90.3922 31.1146C89.4062 31.1146 88.5511 30.6792 88.5511 29.6092C88.5511 28.5598 89.3821 28.1506 90.367 27.9216C91.3283 27.6665 92.4683 27.5915 93.0899 27.207L93.0904 27.2064ZM98.7847 17.2004V33.4166H103.194V17.1999L98.7847 17.2004ZM113.689 17.2004V21.5876H113.635C112.728 20.3868 111.457 19.7732 109.797 19.7732C105.983 19.7732 104.117 23.0432 104.117 26.4918C104.117 30.2217 105.907 33.7981 110.134 33.7981C111.69 33.7981 112.988 33.1343 113.844 31.8821H113.894V33.4161H118.098V17.2004H113.689ZM111.223 23.094C113.143 23.094 113.844 24.8581 113.844 26.7731C113.844 28.4581 113.377 30.4769 111.223 30.4769C109.2 30.4769 108.527 28.4587 108.527 26.6453C108.527 24.9602 109.2 23.094 111.223 23.094ZM119.018 17.2004V21.5866H121.082L123.142 17.2004H119.018ZM38.6275 17.2004V33.4166H45.7069C50.7097 33.4166 53.7763 30.5544 53.7763 25.2421C53.7763 20.2207 50.755 17.2004 45.7069 17.2004H38.6275ZM43.3263 20.96H45.3073C47.8696 20.96 49.0181 22.6471 49.0181 25.2295C49.0181 28.0701 48.092 29.6585 45.3073 29.6585H43.3263V20.96ZM5.31926 17.1777L1.91797 33.4161H6.77429L8.02599 26.9674C8.1599 26.2548 8.27386 25.5387 8.36773 24.8198H8.41655C8.49305 25.2688 8.69085 26.1576 8.88965 26.916L10.6542 33.4161H15.4808L17.2424 26.916C17.4432 26.1576 17.64 25.2688 17.7155 24.8198H17.7673C17.8101 25.1646 17.9455 26.1369 18.1081 26.9674L19.3598 33.4161H24.2151L20.8143 17.1777H15.6676L13.6056 25.3337C13.4329 25.9658 13.22 26.9895 13.0912 27.5235H13.0429C12.912 26.9895 12.7006 25.9658 12.5285 25.3337L10.4655 17.1777L5.31926 17.1777ZM61.7802 19.7722C57.4337 19.7722 54.6958 22.8137 54.6958 26.7973C54.6958 30.7819 57.4327 33.8223 61.7792 33.8223C66.1262 33.8223 68.8616 30.7824 68.8616 26.7973C68.8616 22.8137 66.1267 19.7722 61.7802 19.7722ZM61.7792 23.093C63.6852 23.093 64.4502 24.6749 64.4502 26.7973C64.4502 28.9217 63.6857 30.5015 61.7797 30.5015C59.8722 30.5015 59.1072 28.9217 59.1072 26.7973C59.1072 24.6744 59.8717 23.093 61.7792 23.093ZM128.387 19.7707C125.777 19.7707 122.206 20.6389 122.206 23.8333C122.206 27.4103 125.751 27.4853 128.491 28.1758C129.257 28.356 130.616 28.5588 130.615 29.5815C130.615 30.6304 129.411 30.9877 128.566 30.9877C127.952 30.9877 127.421 30.8342 127.013 30.5272C126.577 30.194 126.296 29.7073 126.296 29.045H122.089C122.218 32.7513 125.444 33.7971 128.593 33.7971C131.589 33.7971 135.082 32.6214 135.082 29.0712C135.082 27.9725 134.393 26.0302 131.704 25.4922C129.706 25.0604 126.674 24.8309 126.674 23.5787C126.674 22.6576 127.826 22.5811 128.542 22.5811C129.08 22.5811 129.508 22.6838 129.867 22.9133C130.225 23.1438 130.431 23.5007 130.431 24.0628H134.507C134.354 20.6143 131.306 19.7707 128.387 19.7707Z" fill="white"/>
</svg>
