<svg width="136" height="51" viewBox="0 0 136 51" fill="none" xmlns="http://www.w3.org/2000/svg">
<g clip-path="url(#clip0_2201_115)">
<path d="M50.4964 27.5723L49.7863 29.7293H49.7272C49.6088 29.2429 49.3918 28.5028 49.0368 27.6146L45.2299 17.3581H41.502V33.7051H43.9675V23.6177C43.9675 22.9833 43.9675 22.2643 43.9478 21.3761C43.9281 20.932 43.8886 20.5936 43.8689 20.3399H43.9281C44.0464 20.9743 44.1845 21.4395 44.2831 21.7356L48.8593 33.6628H50.595L55.1317 21.6298C55.2303 21.3549 55.329 20.8051 55.4276 20.3399H55.4868C55.4276 21.5453 55.3881 22.6238 55.3684 23.2794V33.6416H57.9918V17.3158H54.4019L50.4964 27.5723ZM60.4771 21.9259H63.0413V33.6416H60.4771V21.9259ZM61.7789 16.9774C61.345 16.9774 60.99 17.1466 60.6941 17.4426C60.3982 17.7387 60.2404 18.1194 60.2404 18.5846C60.2404 19.0287 60.3982 19.4094 60.6941 19.7054C60.99 20.0015 61.345 20.1495 61.7789 20.1495C62.2129 20.1495 62.5877 19.9803 62.8638 19.7054C63.1597 19.4094 63.3175 19.0287 63.3175 18.5846C63.3175 18.1405 63.1597 17.7599 62.8638 17.4426C62.6074 17.1466 62.2326 16.9774 61.7789 16.9774ZM72.1344 21.8202C71.661 21.7144 71.1679 21.651 70.6945 21.651C69.5307 21.651 68.4656 21.9259 67.578 22.4757C66.6904 23.0256 65.9803 23.7869 65.5266 24.7385C65.0532 25.7113 64.8165 26.8321 64.8165 28.1221C64.8165 29.2429 65.0532 30.2369 65.5069 31.1462C65.9606 32.0344 66.5918 32.7534 67.4399 33.2398C68.2486 33.7262 69.1954 33.98 70.2606 33.98C71.4835 33.98 72.5289 33.7051 73.3573 33.1975L73.3771 33.1764V30.6387L73.2784 30.7233C72.9037 31.0193 72.4697 31.2731 72.0358 31.4211C71.5821 31.5903 71.1679 31.6749 70.8129 31.6749C69.7872 31.6749 68.9785 31.3577 68.4064 30.6598C67.8147 29.9831 67.5188 29.0526 67.5188 27.8895C67.5188 26.6841 67.8147 25.7325 68.4262 25.0346C69.0376 24.3367 69.8463 23.9772 70.8326 23.9772C71.661 23.9772 72.5092 24.2733 73.2784 24.8654L73.3771 24.95V22.2643L73.3573 22.2431C73.022 22.0951 72.6472 21.9259 72.1344 21.8202ZM80.5963 21.7356C79.9651 21.7356 79.3734 21.9471 78.8605 22.3912C78.4266 22.7718 78.1307 23.3216 77.8743 23.9772H77.8546V21.9259H75.2904V33.6416H77.8546V27.6569C77.8546 26.6418 78.0518 25.7959 78.4858 25.1826C78.9197 24.5482 79.472 24.231 80.1426 24.231C80.3793 24.231 80.616 24.2944 80.9119 24.3367C81.188 24.4213 81.3853 24.5059 81.5234 24.6116L81.622 24.6962V21.9471L81.5628 21.9259C81.3853 21.799 81.0302 21.7356 80.5963 21.7356ZM87.5788 21.6721C85.7839 21.6721 84.344 22.2431 83.338 23.3639C82.3124 24.4848 81.8192 26.0285 81.8192 27.9741C81.8192 29.7928 82.3321 31.2731 83.3183 32.3516C84.3045 33.409 85.6458 33.9588 87.3224 33.9588C89.0779 33.9588 90.4784 33.3879 91.4843 32.2459C92.51 31.1039 93.0031 29.5813 93.0031 27.6992C93.0031 25.8382 92.5297 24.3579 91.5632 23.2794C90.6362 22.2008 89.2752 21.6721 87.5788 21.6721ZM89.6302 30.681C89.1568 31.3366 88.4073 31.6538 87.4802 31.6538C86.5532 31.6538 85.8036 31.3366 85.2711 30.6387C84.7385 29.9831 84.4821 29.0315 84.4821 27.8261C84.4821 26.5784 84.7582 25.6267 85.2711 24.95C85.8036 24.2733 86.5334 23.9349 87.4605 23.9349C88.3678 23.9349 89.0779 24.2521 89.5908 24.9077C90.1036 25.5633 90.3798 26.5149 90.3798 27.7626C90.3403 29.0315 90.1233 30.0254 89.6302 30.681ZM98.7233 26.7898C97.9146 26.4303 97.4017 26.1554 97.165 25.9228C96.9678 25.7113 96.8692 25.4153 96.8692 25.0346C96.8692 24.7174 96.9875 24.4002 97.2834 24.1887C97.5793 23.9772 97.9146 23.8715 98.4077 23.8715C98.8417 23.8715 99.2953 23.9561 99.7293 24.083C100.163 24.2098 100.558 24.4002 100.873 24.6539L100.972 24.7385V22.1585L100.913 22.1374C100.617 22.0105 100.222 21.8836 99.749 21.7779C99.2756 21.6933 98.8417 21.651 98.4866 21.651C97.2637 21.651 96.2577 21.9682 95.4687 22.6661C94.6797 23.3216 94.305 24.2098 94.305 25.2461C94.305 25.7959 94.3839 26.2823 94.5614 26.6841C94.7389 27.0859 94.9953 27.4666 95.3504 27.7838C95.7054 28.0798 96.2183 28.4182 96.9284 28.7354C97.5201 29.0103 97.9738 29.2218 98.2499 29.391C98.5261 29.5602 98.7036 29.7505 98.8416 29.8985C98.9403 30.0677 98.9994 30.2792 98.9994 30.5541C98.9994 31.3366 98.4472 31.7172 97.3228 31.7172C96.8889 31.7172 96.4352 31.6326 95.9027 31.4423C95.3701 31.252 94.877 30.977 94.4628 30.6598L94.3641 30.5752V33.261L94.4233 33.2821C94.7981 33.4724 95.2518 33.5993 95.804 33.7474C96.3563 33.8531 96.8495 33.9377 97.2834 33.9377C98.605 33.9377 99.6898 33.6205 100.459 32.9226C101.248 32.2459 101.662 31.3788 101.662 30.258C101.662 29.4756 101.465 28.7777 101.031 28.249C100.459 27.7415 99.749 27.2128 98.7233 26.7898ZM108.428 21.6721C106.633 21.6721 105.193 22.2431 104.187 23.3639C103.181 24.4848 102.668 26.0285 102.668 27.9741C102.668 29.7928 103.181 31.2731 104.167 32.3516C105.154 33.409 106.495 33.9588 108.171 33.9588C109.927 33.9588 111.327 33.3879 112.333 32.2459C113.359 31.1039 113.852 29.5813 113.852 27.6992C113.852 25.8382 113.379 24.3579 112.412 23.2794C111.485 22.2008 110.124 21.6721 108.428 21.6721ZM110.459 30.681C109.986 31.3366 109.237 31.6538 108.31 31.6538C107.363 31.6538 106.633 31.3366 106.1 30.6387C105.568 29.9831 105.311 29.0315 105.311 27.8261C105.311 26.5784 105.587 25.6267 106.1 24.95C106.633 24.2733 107.363 23.9349 108.29 23.9349C109.177 23.9349 109.907 24.2521 110.42 24.9077C110.933 25.5633 111.209 26.5149 111.209 27.7626C111.209 29.0315 110.953 30.0254 110.459 30.681ZM127.561 24.1887V21.9259H124.977V18.4577L124.898 18.4789L122.452 19.2613L122.393 19.2825V21.9259H118.527V20.4456C118.527 19.7689 118.685 19.2402 118.961 18.9018C119.237 18.5635 119.651 18.3943 120.164 18.3943C120.519 18.3943 120.894 18.4789 121.308 18.6692L121.407 18.7326V16.343L121.348 16.3218C120.992 16.1949 120.519 16.1104 119.908 16.1104C119.138 16.1104 118.468 16.3007 117.856 16.6179C117.245 16.9774 116.791 17.4638 116.456 18.1194C116.12 18.7538 115.943 19.4728 115.943 20.2976V21.9259H114.148V24.1675H115.943V33.6416H118.527V24.1887H122.393V30.2157C122.393 32.69 123.478 33.9377 125.648 33.9377C126.003 33.9377 126.377 33.8743 126.732 33.8108C127.107 33.7262 127.383 33.6205 127.541 33.5359L127.561 33.5147V31.252L127.462 31.3366C127.304 31.4423 127.166 31.5269 126.93 31.5903C126.732 31.6538 126.555 31.6749 126.417 31.6749C125.904 31.6749 125.549 31.548 125.292 31.2308C125.056 30.9347 124.937 30.4484 124.937 29.7293V24.1887H127.561Z" fill="white"/>
<path d="M8.44238 11.8599H20.5336V24.8233H8.44238V11.8599Z" fill="#F25022"/>
<path d="M21.7949 11.8599H33.8862V24.8233H21.7949V11.8599Z" fill="#7FBA00"/>
<path d="M8.44238 26.1768H20.5336V39.1402H8.44238V26.1768Z" fill="#00A4EF"/>
<path d="M21.7949 26.1768H33.8862V39.1402H21.7949V26.1768Z" fill="#FFB900"/>
</g>
<defs>
<clipPath id="clip0_2201_115">
<rect width="119.124" height="27.2803" fill="white" transform="translate(8.43848 11.8599)"/>
</clipPath>
</defs>
</svg>
