<svg width="111" height="51" viewBox="0 0 111 51" fill="none" xmlns="http://www.w3.org/2000/svg">
<path d="M39.7913 27.317C39.7913 25.102 38.7806 23.3387 36.7377 23.3387C34.6947 23.3387 33.6195 25.102 33.6195 27.317C33.6195 29.532 34.6302 31.2954 36.7377 31.2954C38.8236 31.2309 39.7913 29.532 39.7913 27.317ZM31.34 27.317C31.34 23.9623 33.4475 21.4678 36.7162 21.4678C39.9849 21.4678 42.0923 23.9623 42.0923 27.317C42.0923 30.6717 39.9849 33.1018 36.7162 33.1018C33.4475 33.1018 31.34 30.6717 31.34 27.317ZM44.0492 21.7043H46.3717L50.1135 27.9407C50.4576 28.5643 50.9092 29.532 50.9092 29.532H50.9737C50.9737 29.532 50.9092 28.3923 50.9092 27.5966V21.7043H53.1027V32.8652H50.8877L47.0384 26.6934C46.6943 26.1343 46.2427 25.1666 46.2427 25.1666H46.1782C46.1782 25.1666 46.2427 26.3493 46.2427 27.102V32.8867H44.0277V21.7043H44.0492ZM55.6187 21.7043H63.8335V23.5752H57.8767V26.0698H63.1023V27.9407H57.8767V30.9513H63.8765V32.8867H55.5972V21.7043H55.6187ZM68.414 26.9729H70.7365C71.9192 26.9729 72.5429 26.2848 72.5429 25.3386C72.5429 24.3279 71.8547 23.7042 70.7795 23.7042H68.3925V26.9729H68.414ZM66.0915 21.7043H71.016C72.3278 21.7043 73.274 22.0914 73.9622 22.715C74.5858 23.3387 74.9729 24.2419 74.9729 25.2741C74.9729 27.3815 73.5536 28.7793 71.2311 28.7793H68.5V32.8007H66.2205V21.6828H66.0915V21.7043ZM76.5857 21.7043H78.8437V30.9513H84.0693V32.8867H76.5857V21.7043ZM85.3166 29.2524V21.7043H87.5746V29.2954C87.5746 30.4352 88.1337 31.2739 89.682 31.2739C91.1014 31.2739 91.7895 30.4137 91.7895 29.2954V21.7043H94.0475V29.2954C94.0475 31.6825 92.5637 33.1018 89.7466 33.1018C86.8004 33.0373 85.3166 31.6825 85.3166 29.2524ZM95.6388 29.4245H97.8538C98.0258 30.7793 98.757 31.2954 100.348 31.2954C101.488 31.2954 102.499 30.9083 102.499 29.8761C102.499 28.8008 101.424 28.5643 99.7247 28.1772C97.7463 27.7256 95.8754 27.2095 95.8754 24.887C95.8754 22.672 97.6818 21.5323 100.133 21.5323C102.628 21.5323 104.262 22.7795 104.434 24.9945H102.284C102.176 23.8548 101.273 23.2957 100.133 23.2957C98.9505 23.2957 98.0904 23.8118 98.0904 24.6074C98.0904 25.5106 98.886 25.7902 100.52 26.1343C102.843 26.6504 104.714 27.145 104.714 29.5965C104.714 31.8545 102.907 33.1018 100.348 33.1018C97.4022 33.1018 95.7033 31.747 95.6388 29.4245ZM6.28711 17.726V36.7791H25.3402V25.8977H23.2328V34.6931H8.37306V19.8979H17.1684V17.7475H6.28711V17.726ZM23.2328 14.2207V17.726H19.663V19.8764H23.2328V23.3817H25.3402V19.8764H28.8455V17.726H25.3402V14.2207H23.2328Z" fill="white"/>
<path d="M17.1689 31.8545V22.5645H15.298C15.298 23.1881 15.0615 23.7042 14.7389 23.9838C14.3949 24.2633 13.8787 24.3708 13.2551 24.3708H13.0186V25.8977H14.997V31.8545C15.0185 31.8545 17.1689 31.8545 17.1689 31.8545Z" fill="white"/>
</svg>
