<svg width="152" height="51" viewBox="0 0 152 51" fill="none" xmlns="http://www.w3.org/2000/svg">
<g clip-path="url(#clip0_2201_79)">
<path d="M129.016 20.1092C129.79 20.1092 130.427 19.7071 130.513 19.1877L131.277 10.5539C131.277 9.70056 130.277 9 129.019 9C127.762 9 126.762 9.70056 126.762 10.5541L127.526 19.1877C127.61 19.707 128.247 20.1092 129.019 20.1092H129.016ZM124.346 22.8059C124.734 22.1371 124.705 21.3854 124.296 21.0514L117.194 16.0734C116.455 15.6461 115.348 16.1604 114.72 17.2493C114.089 18.3368 114.201 19.5514 114.937 19.9788L122.802 23.6375C123.293 23.8196 123.964 23.4692 124.349 22.8008L124.346 22.8059ZM133.69 22.8013C134.078 23.4696 134.745 23.8202 135.237 23.638L143.101 19.9793C143.842 19.552 143.947 18.3373 143.323 17.2498C142.691 16.162 141.582 15.6466 140.846 16.0738L133.743 21.0519C133.337 21.3854 133.307 22.1377 133.693 22.8064L133.69 22.8013ZM129.016 30.8941C129.79 30.8941 130.427 31.2927 130.513 31.8126L131.277 40.4452C131.277 41.3011 130.277 42.0002 129.019 42.0002C127.762 42.0002 126.762 41.3011 126.762 40.4452L127.526 31.8126C127.61 31.2927 128.247 30.8941 129.019 30.8941H129.016ZM133.69 28.1967C134.078 27.5265 134.745 27.179 135.237 27.3632L143.101 31.0195C143.842 31.4472 143.947 32.663 143.323 33.7515C142.691 34.8357 141.582 35.3525 140.846 34.9258L133.743 29.9524C133.337 29.6163 133.307 28.8636 133.693 28.1953H133.69M124.346 28.1958C124.734 28.8636 124.705 29.6163 124.296 29.9531L117.194 34.9263C116.455 35.353 115.348 34.8362 114.72 33.7519C114.089 32.6635 114.201 31.4477 114.937 31.0199L122.802 27.3637C123.293 27.1795 123.964 27.527 124.349 28.1973H124.346" fill="#FDBB30"/>
<path d="M84.218 29.9366C84.218 30.2016 84.1944 30.4748 84.1218 30.7148C83.8206 31.7116 82.7877 32.5545 81.4955 32.5545C80.4181 32.5545 79.5624 31.9429 79.5624 30.6513C79.5624 28.6746 81.7399 28.1287 84.2186 28.1424L84.218 29.9365V29.9366ZM88.1059 26.4917C88.1059 23.2321 86.712 20.364 82.0021 20.364C79.5844 20.364 77.6656 21.0425 76.6182 21.6473L77.3853 24.2677C78.3425 23.6639 79.8681 23.1641 81.3118 23.1641C83.7008 23.1574 84.0921 24.5159 84.0921 25.3853V25.5911C78.8844 25.5834 75.5924 27.3851 75.5924 31.0555C75.5924 33.2983 77.2691 35.3989 80.1836 35.3989C81.9745 35.3989 83.4745 34.6847 84.3722 33.5394H84.4608C84.4608 33.5394 85.0548 36.0259 88.3339 35.0745C88.1628 34.0405 88.1066 32.9366 88.1066 31.6093L88.1061 26.4917M6.96484 15.9249C6.96484 15.9249 10.3679 29.8582 10.9114 32.1195C11.5453 34.7589 12.6877 35.7306 15.9801 35.0745L18.1049 26.4364C18.6437 24.2898 19.0043 22.7593 19.3515 20.5778H19.4119C19.6556 22.7824 20.0014 24.2964 20.4448 26.4435C20.4448 26.4435 21.3093 30.3653 21.7528 32.4245C22.1968 34.483 23.4326 35.7812 26.6579 35.0745L31.7212 15.9243H27.6344L25.905 24.2043C25.44 26.6134 25.0186 28.4981 24.6933 30.7016H24.6355C24.34 28.5175 23.9637 26.7097 23.4915 24.3619L21.6924 15.9243H17.4336L15.5081 24.1491C14.9631 26.6492 14.4521 28.667 14.1284 30.7972H14.0695C13.7371 28.7913 13.2947 26.2542 12.8158 23.8354C12.8158 23.8354 11.6727 17.9522 11.2707 15.9243L6.96484 15.9249ZM39.4517 29.9366C39.4517 30.2016 39.4281 30.4748 39.3544 30.7148C39.0538 31.7116 38.0203 32.5545 36.7281 32.5545C35.6506 32.5545 34.796 31.9429 34.796 30.6513C34.796 28.6746 36.9729 28.1287 39.4521 28.1424L39.4517 29.9365V29.9366ZM43.3391 26.4917C43.3391 23.2321 41.9452 20.364 37.2362 20.364C34.8179 20.364 32.8976 21.0425 31.8508 21.6473L32.617 24.2677C33.574 23.6639 35.0996 23.1641 36.5438 23.1641C38.9345 23.1574 39.3257 24.5159 39.3257 25.3853V25.5911C34.1159 25.5834 30.8255 27.3851 30.8255 31.0555C30.8255 33.2983 32.5012 35.3989 35.4136 35.3989C37.207 35.3989 38.706 34.6847 39.6048 33.5394H39.6923C39.6923 33.5394 40.288 36.0259 43.5664 35.0745C43.395 34.0405 43.3391 32.9366 43.3391 31.6093V26.4917ZM49.8271 31.0095V15.9249H45.9346V35.0751H49.8271V31.0095ZM100.749 15.9249V30.0517C100.749 32.0003 101.116 33.3639 101.9 34.1985C102.587 34.9282 103.716 35.4005 105.069 35.4005C106.221 35.4005 107.353 35.181 107.887 34.983L107.836 31.9445C107.439 32.0415 106.983 32.1201 106.358 32.1201C105.032 32.1201 104.588 31.271 104.588 29.5226V24.1174H107.978V20.4529H104.588V15.9249H100.749ZM90.7015 20.6888V35.0751H94.717V27.7091C94.717 27.3109 94.741 26.964 94.8041 26.6467C95.1011 25.1029 96.282 24.1174 97.9782 24.1174C98.4432 24.1174 98.776 24.1679 99.1366 24.2191V20.4529C98.834 20.3926 98.6286 20.3644 98.2522 20.3644C96.7537 20.3644 95.0489 21.3306 94.3334 23.403H94.2249V20.6888H90.7015ZM52.5527 20.6888V35.0751H56.4648V26.639C56.4648 26.2431 56.5114 25.8244 56.6486 25.4615C56.9728 24.6122 57.7639 23.6174 59.0264 23.6174C60.6057 23.6174 61.3432 24.9509 61.3432 26.8754V35.0741H65.2523V26.5352C65.2523 26.1575 65.3039 25.7021 65.4157 25.3691C65.7367 24.4024 66.5888 23.6163 67.7626 23.6163C69.363 23.6163 70.1311 24.9264 70.1311 27.1917V35.0736H74.0428V26.6C74.0428 22.1319 71.772 20.3631 69.2083 20.3631C68.074 20.3631 67.1777 20.6469 66.3672 21.1433C65.6865 21.5622 65.0761 22.1559 64.5434 22.9362H64.4856C63.8675 21.3859 62.413 20.3638 60.5175 20.3638C58.0826 20.3638 56.9882 21.5972 56.3244 22.6431H56.2661V20.6884H52.5527" fill="white"/>
<path d="M145.074 34.3756H145.133C145.211 34.3756 145.261 34.3433 145.261 34.2952C145.261 34.2405 145.214 34.2108 145.141 34.2108C145.116 34.2108 145.091 34.2159 145.074 34.2159V34.377V34.3755L145.074 34.3756ZM145.065 34.7635H144.857V34.0865C144.904 34.0772 145.014 34.0608 145.155 34.0608C145.308 34.0608 145.377 34.0823 145.427 34.1162C145.469 34.1458 145.5 34.1963 145.5 34.2645C145.5 34.334 145.436 34.3929 145.342 34.4186V34.4272C145.419 34.4477 145.461 34.5035 145.483 34.6013C145.504 34.6989 145.517 34.7388 145.53 34.7639H145.294C145.274 34.7388 145.261 34.6789 145.248 34.6191C145.234 34.5506 145.202 34.5162 145.132 34.5162H145.064L145.065 34.7635ZM145.151 33.8659C144.852 33.8659 144.627 34.109 144.627 34.4189C144.627 34.7208 144.853 34.9671 145.159 34.9671C145.466 34.9722 145.692 34.721 145.692 34.414C145.692 34.1084 145.466 33.8659 145.155 33.8659H145.151ZM145.164 33.6821C145.58 33.6821 145.912 34.0096 145.912 34.4138C145.912 34.8228 145.58 35.1507 145.158 35.1507C144.736 35.1507 144.4 34.8223 144.4 34.414C144.4 34.0096 144.737 33.6823 145.158 33.6823H145.163" fill="#FDBB30"/>
</g>
<defs>
<clipPath id="clip0_2201_79">
<rect width="139" height="33" fill="white" transform="translate(6.93945 9)"/>
</clipPath>
</defs>
</svg>
